
<svg width="24px" height="21px" viewBox="0 0 24 21" version="1.1" xmlns="http://www.w3.org/2000/svg" xmlns:xlink="http://www.w3.org/1999/xlink">
    <!-- Generator: Sketch 49.3 (51167) - http://www.bohemiancoding.com/sketch -->
    <desc>Created with Sketch.</desc>
    <defs></defs>
    <g id="Welcome" stroke="none" stroke-width="1" fill="none" fill-rule="evenodd">
        <g id="Desktop-HD" transform="translate(-193.000000, -1659.000000)" fill="#7E848C">
            <g id="card" transform="translate(35.000000, 1277.000000)">
                <path d="M166.727351,389.723017 L170.000061,384.854792 L173.272772,389.723017 L166.727351,389.723017 Z M175.683669,389.723017 L170.905511,382.464935 C170.69824,382.16731 170.358969,381.993049 170.000061,382.000241 C169.638427,381.992496 169.29752,382.171735 169.094611,382.476 L164.316454,389.723017 L159.091026,389.723017 C158.489393,389.724677 158.001759,390.219245 158.000123,390.829432 C157.998486,390.930669 158.013214,391.031906 158.043759,391.128164 L160.814654,401.384631 C161.074289,402.34002 161.931739,403.001657 162.909189,402.999997 L177.090934,402.999997 C178.069475,402.99889 178.929107,402.339467 179.196378,401.384631 L181.967273,391.128164 L182,390.829432 C181.998364,390.219245 181.511275,389.724677 180.909096,389.723017 L175.683669,389.723017 L175.683669,389.723017 Z" id="basket"></path>
            </g>
        </g>
    </g>
</svg>