
<svg width="6px" height="23px" viewBox="0 0 6 23" version="1.1" xmlns="http://www.w3.org/2000/svg" xmlns:xlink="http://www.w3.org/1999/xlink">
    <!-- Generator: Sketch 49.3 (51167) - http://www.bohemiancoding.com/sketch -->
    <desc>Created with Sketch.</desc>
    <defs></defs>
    <g id="Welcome" stroke="none" stroke-width="1" fill="none" fill-rule="evenodd">
        <g id="Desktop-HD" transform="translate(-284.000000, -1658.000000)" fill="#7E848C">
            <g id="card" transform="translate(35.000000, 1277.000000)">
                <path d="M252,398.24827 C250.422261,398.171079 249.08072,399.39464 249.003439,400.982257 C248.926701,402.569328 250.143612,403.918802 251.721351,403.996541 C253.29909,404.073732 254.640631,402.849624 254.717913,401.262554 C254.72009,401.21602 254.721178,401.168939 254.721178,401.122406 C254.753832,399.574752 253.53801,398.290972 252,398.24827 M252,389.625865 C250.422261,389.548674 249.08072,390.772234 249.003439,392.359852 C248.926701,393.946922 250.143612,395.296397 251.721351,395.374135 C253.29909,395.451326 254.640631,394.227218 254.717913,392.640148 C254.72009,392.593615 254.721178,392.546534 254.721178,392.5 C254.753832,390.952347 253.53801,389.668566 252,389.625865 M252,386.75173 C253.577739,386.828921 254.91928,385.60536 254.996561,384.017743 C255.073299,382.430672 253.856388,381.081198 252.278649,381.003459 C250.70091,380.926268 249.359369,382.150376 249.282087,383.737446 C249.27991,383.78398 249.278822,383.831061 249.278822,383.877594 C249.246168,385.425248 250.46199,386.709028 252,386.75173" id="more"></path>
            </g>
        </g>
    </g>
</svg>